<svg fill="none" height="234" viewBox="0 0 522 234" width="522" xmlns="http://www.w3.org/2000/svg"><g fill="#fff"><path d="m92.9441 37.2917v-35.96162h3.2216v35.96162z"/><path d="m423.27 37.2917v-35.96162h3.221v35.96162z"/><path d="m0 118.986v-3.263h23.9467v3.263z"/><path d="m95.0918 130.386c-2.9311 0-5.4939-1.115-7.5586-3.139-3.3046-3.221-3.5899-7.719-3.5899-12.056s.2905-8.835 3.5899-12.056c2.0647-2.024 4.6223-3.1389 7.5586-3.1389 5.6542 0 10.2402 3.9639 10.4892 9.7009h-3.839c-.083-1.608-.783-3.18-1.691-4.129-1.1981-1.323-2.9308-2.106-4.954-2.106-1.9818 0-3.59.824-4.9544 2.23-2.3967 2.48-2.3967 6.277-2.3967 9.499s0 7.019 2.3967 9.499c1.3644 1.406 2.9726 2.231 4.9544 2.231 3.7144 0 6.645-2.682 6.728-6.444h3.798c-.249 5.697-4.835 9.909-10.5312 9.909z"/><path d="m185.229 129.804-2.438-7.559h-11.356l-2.397 7.559h-3.756l9.624-29.275h4.461l9.66 29.275zm-8.176-25.514-4.544 14.495h9.208z"/><path d="m265.126 129.804-11.724-23.537v23.537h-3.59v-29.275h4.581l11.682 23.662v-23.662h3.549v29.275z"/><path d="m349.936 127.206c-2.107 2.065-4.706 3.18-7.637 3.18s-5.535-1.115-7.636-3.18c-3.18-3.097-3.549-7.351-3.549-12.015s.374-8.918 3.549-12.015c2.106-2.065 4.705-3.1799 7.636-3.1799s5.53 1.1149 7.637 3.1799c3.18 3.097 3.548 7.351 3.548 12.015s-.368 8.918-3.548 12.015zm-2.563-21.472c-1.406-1.448-3.097-2.231-5.079-2.231s-3.673.783-5.079 2.231c-2.397 2.48-2.314 6.401-2.314 9.457s-.083 6.978 2.314 9.457c1.406 1.448 3.097 2.231 5.079 2.231s3.673-.783 5.079-2.231c2.397-2.479 2.314-6.401 2.314-9.457s.083-6.977-2.314-9.457z"/><path d="m432.514 127.206c-2.106 2.065-4.705 3.18-7.636 3.18s-5.536-1.115-7.637-3.18c-3.18-3.097-3.548-7.351-3.548-12.015s.373-8.918 3.548-12.015c2.107-2.065 4.706-3.1799 7.637-3.1799s5.53 1.1149 7.636 3.1799c3.18 3.097 3.548 7.351 3.548 12.015.006 4.664-.368 8.918-3.548 12.015zm-2.558-21.472c-1.405-1.448-3.097-2.231-5.078-2.231-1.982 0-3.673.783-5.079 2.231-2.397 2.48-2.314 6.401-2.314 9.457s-.083 6.978 2.314 9.457c1.406 1.448 3.097 2.231 5.079 2.231 1.981 0 3.673-.783 5.078-2.231 2.397-2.479 2.314-6.401 2.314-9.457s.083-6.977-2.314-9.457z"/><path d="m495.483 118.986v-3.263h23.947v3.263z"/><path d="m92.9441 231.735v-35.962h3.2216v35.962z"/><path d="m423.27 231.735v-35.962h3.221v35.962z"/></g></svg>